<svg id="Capa_1" enable-background="new 0 0 512 512" height="512" viewBox="0 0 512 512" width="512" xmlns="http://www.w3.org/2000/svg"><g><g><path d="m228.401 85.351c5.522 0 10-4.477 10-10v-12.893c0-5.523-4.478-10-10-10s-10 4.477-10 10v12.893c0 5.523 4.478 10 10 10z"/><path d="m442.382 203.962c-1.239 0-2.469.033-3.692.097-23.934-64.061-75.934-114.053-140.81-135.222-2.303-36.442-32.586-65.382-69.478-65.382-36.893 0-67.174 28.941-69.477 65.383-43.663 14.266-82.796 42.418-110.436 79.515-29.184 39.168-44.61 85.794-44.61 134.838 0 18.513 2.243 36.926 6.668 54.727.034.135.07.269.109.402-6.749 10.757-10.656 23.481-10.656 37.103 0 55.373 61.51 96.412 64.128 98.132 1.666 1.094 3.578 1.642 5.49 1.642 1.884 0 3.768-.531 5.417-1.594.817-.527 7.364-4.809 15.989-12.155 39.154 30.412 87.699 47.096 137.377 47.096 46.69 0 91.455-14.249 129.454-41.207 34.523-24.493 61.149-57.705 77.446-96.474.841.584 1.389.948 1.59 1.081 1.666 1.094 3.578 1.642 5.49 1.642 1.884 0 3.768-.531 5.417-1.594 2.622-1.691 64.202-42.022 64.202-98.181 0-38.515-31.23-69.849-69.618-69.849zm-55.72-50.883h-62.098c-7.995-22.04-18.082-41.352-29.946-56.797.663-2.246 1.24-4.529 1.721-6.846 35.647 12.597 66.801 34.827 90.323 63.643zm-60.996 130.112c0 39.598-5.392 77.441-15.472 110.112h-71.792v-67.241c0-5.523-4.478-10-10-10s-10 4.477-10 10v67.241h-71.792c-10.08-32.671-15.472-70.514-15.472-110.112 0-39.817 5.465-77.733 15.411-110.112h71.853v62.57c0 5.523 4.478 10 10 10s10-4.477 10-10v-62.57h71.854c9.945 32.38 15.41 70.295 15.41 110.112zm-195.643 130.112h2.219c3.404 9.36 7.196 18.262 11.361 26.624 8.031 16.125 17.135 29.609 27.043 40.237-23.308-6.891-45.348-17.917-64.916-32.647 8.859-9.367 17.856-20.941 24.293-34.214zm88.378 74.116c-21.023-4.742-40.929-24.353-56.896-56.408-2.809-5.641-5.438-11.553-7.879-17.708h64.774v74.116zm20 0v-74.116h64.775c-2.441 6.154-5.069 12.067-7.879 17.707-15.965 32.055-35.872 51.667-56.896 56.409zm-38.163-334.34h-46.695c5.209-13.151 11.246-25.076 18.029-35.464 8.187 14.289 19.04 26.379 28.666 35.464zm56.56 0c9.613-9.025 20.405-21.037 28.536-35.308 6.741 10.351 12.745 22.222 17.927 35.308zm-28.397-129.623c27.36 0 49.619 22.362 49.619 49.849 0 36.567-35.661 66.99-49.573 77.465-13.922-10.626-49.664-41.421-49.664-77.465 0-27.487 22.259-49.849 49.618-49.849zm-67.901 65.963c.487 2.299 1.07 4.566 1.738 6.798-11.887 15.456-21.991 34.791-29.998 56.863h-62.416c23.228-28.539 54.246-50.841 90.676-63.661zm-105.036 83.66h70.307c-9.467 33.033-14.634 70.786-14.634 110.112 0 12.658.531 25.16 1.569 37.406-11.861-9.404-26.833-15.023-43.089-15.023-15.964 0-30.689 5.419-42.446 14.519-2.188-12.124-3.293-24.486-3.293-36.902.001-40.181 11.392-78.062 31.586-110.112zm14.2 279.81c-13.922-10.626-49.664-41.421-49.664-77.466 0-27.487 22.259-49.849 49.618-49.849 27.36 0 49.619 22.362 49.619 49.849 0 36.568-35.661 66.991-49.573 77.466zm216.573 27.189c9.877-10.614 18.954-24.07 26.964-40.151 4.165-8.362 7.957-17.264 11.361-26.624h61.987c-25.992 31.668-61.037 55.047-100.312 66.775zm114.799-86.775h-69.991c9.54-33.216 14.621-70.92 14.621-110.112 0-39.326-5.167-77.078-14.634-110.112h70.05c6.965 10.993 12.92 22.703 17.734 35.002-26.825 9.711-46.053 35.51-46.053 65.73 0 36.826 27.206 67.311 46.201 84.109-4.864 12.49-10.891 24.32-17.928 35.383zm41.381-42.019c-13.923-10.59-49.654-41.299-49.654-77.473 0-27.487 22.259-49.849 49.619-49.849 27.359 0 49.618 22.362 49.618 49.849 0 36.576-35.678 67.005-49.583 77.473z"/><path d="m442.382 252.964c-5.522 0-10 4.477-10 10v12.892c0 5.523 4.478 10 10 10s10-4.477 10-10v-12.892c0-5.523-4.478-10-10-10z"/><path d="m69.618 354.577c-5.522 0-10 4.477-10 10v12.892c0 5.523 4.478 10 10 10s10-4.477 10-10v-12.892c0-5.523-4.477-10-10-10z"/><path d="m237.64 277.21c-1.635-3.925-5.704-6.45-9.951-6.143-4.156.3-7.744 3.23-8.898 7.227-1.154 3.996.394 8.46 3.787 10.871 3.37 2.395 7.927 2.464 11.372.185 3.943-2.608 5.475-7.786 3.69-12.14z"/></g></g></svg>