<?xml version="1.0" encoding="iso-8859-1"?>
<!-- Generator: Adobe Illustrator 22.1.0, SVG Export Plug-In . SVG Version: 6.00 Build 0)  -->
<svg xmlns="http://www.w3.org/2000/svg" xmlns:xlink="http://www.w3.org/1999/xlink" version="1.1" id="Layer_1_1_" x="0px" y="0px" viewBox="0 0 64 64" style="enable-background:new 0 0 64 64;" xml:space="preserve" width="512" height="512">
<g>
	<rect x="5" y="5" width="2" height="2"/>
	<rect x="9" y="5" width="2" height="2"/>
	<rect x="13" y="5" width="2" height="2"/>
	<rect x="28" y="13" width="2" height="10"/>
	<rect x="34" y="15" width="2" height="2"/>
	<path d="M63,47V1H1v46h6v16h50V49h-2v10.877L40.453,47.86c0.716-0.611,1.374-1.296,1.947-2.06l12.6-16.8V47H63z M61,3v6H3V3H61z    M21.6,45.8c0.573,0.764,1.232,1.449,1.948,2.06L9,59.878V28.999L21.6,45.8z M53.22,61H10.78l14.445-11.932   C27.246,50.303,29.587,51,32,51c2.413,0,4.754-0.698,6.776-1.933L53.22,61z M40.8,44.601C38.734,47.355,35.444,49,32,49   s-6.734-1.645-8.8-4.399L10,27h18v6h-4.921L32,45.744L40.921,33H36v-4h-2v6h3.08L32,42.256L26.92,35H30V25H7v20H3V11h58v34h-4V25   H36v-6h-2v8h20L40.8,44.601z"/>
</g>
</svg>
