<svg id="Layer_1" enable-background="new 0 0 512.002 512.002" height="512" viewBox="0 0 512.002 512.002" width="512" xmlns="http://www.w3.org/2000/svg"><g><g><path d="m479.5 234.33c17.92 0 32.5-14.58 32.5-32.5v-63.372c0-17.92-14.58-32.5-32.5-32.5h-63.373c-17.92 0-32.5 14.58-32.5 32.5 0 13.47 8.237 25.052 19.939 29.975l-74.953 74.953c-8.36-3.536-17.544-5.492-27.177-5.492s-18.817 1.957-27.177 5.492l-55.799-55.799c-12.671-12.671-33.289-12.67-45.959 0l-49.673 49.673c-3.905 3.905-3.905 10.237 0 14.143 3.904 3.905 10.237 3.905 14.142 0l49.673-49.673c4.873-4.873 12.802-4.872 17.674 0l52.377 52.377c-6.455 5.379-11.919 11.901-16.104 19.244l-38.038-38.039c-1.875-1.875-4.419-2.929-7.071-2.929s-5.196 1.054-7.071 2.929l-147.073 147.072c-4.872 4.873-12.802 4.873-17.674 0-4.873-4.873-4.873-12.802 0-17.674l49.667-49.667c3.905-3.905 3.905-10.237 0-14.143s-10.237-3.905-14.143 0l-49.666 49.667c-12.671 12.671-12.671 33.289 0 45.959 6.335 6.335 14.658 9.503 22.979 9.503s16.644-3.167 22.979-9.503l140.001-140.001 37.365 37.365c-.923 4.526-1.409 9.208-1.409 14.003 0 38.598 31.402 70 70 70s70-31.402 70-70c0-4.794-.487-9.477-1.409-14.003l79.499-79.5c4.922 11.702 16.504 19.94 29.974 19.94zm-178.064 123.563c-27.57 0-50-22.43-50-50s22.43-50 50-50 50 22.43 50 50-22.43 50-50 50zm44.741-103.787 86.077-86.078c2.86-2.86 3.715-7.162 2.167-10.898-1.548-3.737-5.194-6.173-9.239-6.173h-9.056c-6.893 0-12.5-5.607-12.5-12.5s5.607-12.5 12.5-12.5h63.374c6.893 0 12.5 5.607 12.5 12.5v63.372c0 6.893-5.607 12.5-12.5 12.5s-12.5-5.607-12.5-12.5v-9.056c0-4.045-2.437-7.691-6.173-9.239-3.738-1.549-8.038-.692-10.898 2.167l-87.647 87.647c-4.186-7.341-9.65-13.863-16.105-19.242z"/><path d="m479.502 447.002h-447.002c-17.92 0-32.5 14.58-32.5 32.5s14.58 32.5 32.5 32.5h447.002c17.92 0 32.5-14.58 32.5-32.5s-14.58-32.5-32.5-32.5zm0 45h-447.002c-6.893 0-12.5-5.607-12.5-12.5s5.607-12.5 12.5-12.5h447.002c6.893 0 12.5 5.607 12.5 12.5s-5.607 12.5-12.5 12.5z"/><path d="m32.5 65h447.002c17.92 0 32.5-14.58 32.5-32.5s-14.58-32.5-32.5-32.5h-447.002c-17.92 0-32.5 14.58-32.5 32.5s14.58 32.5 32.5 32.5zm0-45h447.002c6.893 0 12.5 5.607 12.5 12.5s-5.607 12.5-12.5 12.5h-447.002c-6.893 0-12.5-5.607-12.5-12.5s5.607-12.5 12.5-12.5z"/><path d="m98.071 286.154c2.865 0 5.71-1.225 7.688-3.598l.005-.006c3.536-4.243 2.96-10.545-1.283-14.081s-10.551-2.958-14.086 1.283c-3.536 4.243-2.962 10.548 1.28 14.084 1.869 1.558 4.139 2.318 6.396 2.318z"/></g></g></svg>